<mxfile host="app.diagrams.net" modified="2023-11-02T15:32:45.762Z" agent="Mozilla/5.0 (Windows NT 10.0; Win64; x64; rv:109.0) Gecko/20100101 Firefox/119.0" etag="OOyRtb_ysVbZ3eSbLukO" version="22.0.8" type="github">
  <diagram id="prtHgNgQTEPvFCAcTncT" name="Page-1">
    <mxGraphModel dx="1434" dy="774" grid="1" gridSize="10" guides="1" tooltips="1" connect="1" arrows="1" fold="1" page="1" pageScale="1" pageWidth="827" pageHeight="1169" math="0" shadow="0">
      <root>
        <mxCell id="0" />
        <mxCell id="1" parent="0" />
        <mxCell id="dNxyNK7c78bLwvsdeMH5-11" value="postgre" style="swimlane;html=1;startSize=20;horizontal=1;containerType=tree;glass=0;" parent="1" vertex="1">
          <mxGeometry x="40" y="80" width="710" height="290" as="geometry" />
        </mxCell>
        <mxCell id="5cGKDr1xZVWZsfU2q4J_-3" value="client program (text-based, web server etc..)" style="whiteSpace=wrap;html=1;aspect=fixed;" vertex="1" parent="dNxyNK7c78bLwvsdeMH5-11">
          <mxGeometry x="40" y="100" width="80" height="80" as="geometry" />
        </mxCell>
        <mxCell id="5cGKDr1xZVWZsfU2q4J_-1" value="postre server(manages the db files and access, does queries on files.)" style="whiteSpace=wrap;html=1;aspect=fixed;" vertex="1" parent="dNxyNK7c78bLwvsdeMH5-11">
          <mxGeometry x="390" y="80" width="100" height="100" as="geometry" />
        </mxCell>
        <mxCell id="5cGKDr1xZVWZsfU2q4J_-4" style="edgeStyle=orthogonalEdgeStyle;rounded=0;orthogonalLoop=1;jettySize=auto;html=1;exitX=1;exitY=1;exitDx=0;exitDy=0;entryX=0.163;entryY=1.025;entryDx=0;entryDy=0;entryPerimeter=0;" edge="1" parent="dNxyNK7c78bLwvsdeMH5-11" source="5cGKDr1xZVWZsfU2q4J_-3" target="5cGKDr1xZVWZsfU2q4J_-1">
          <mxGeometry relative="1" as="geometry" />
        </mxCell>
        <mxCell id="5cGKDr1xZVWZsfU2q4J_-5" value="request access" style="edgeLabel;html=1;align=center;verticalAlign=middle;resizable=0;points=[];" vertex="1" connectable="0" parent="5cGKDr1xZVWZsfU2q4J_-4">
          <mxGeometry x="0.1821" y="-5" relative="1" as="geometry">
            <mxPoint as="offset" />
          </mxGeometry>
        </mxCell>
        <mxCell id="5cGKDr1xZVWZsfU2q4J_-6" style="edgeStyle=orthogonalEdgeStyle;rounded=0;orthogonalLoop=1;jettySize=auto;html=1;exitX=0;exitY=0.5;exitDx=0;exitDy=0;entryX=0.963;entryY=0.638;entryDx=0;entryDy=0;entryPerimeter=0;" edge="1" parent="dNxyNK7c78bLwvsdeMH5-11" source="5cGKDr1xZVWZsfU2q4J_-1" target="5cGKDr1xZVWZsfU2q4J_-3">
          <mxGeometry relative="1" as="geometry" />
        </mxCell>
        <mxCell id="5cGKDr1xZVWZsfU2q4J_-8" value="gives data back" style="edgeLabel;html=1;align=center;verticalAlign=middle;resizable=0;points=[];" vertex="1" connectable="0" parent="5cGKDr1xZVWZsfU2q4J_-6">
          <mxGeometry x="0.22" relative="1" as="geometry">
            <mxPoint as="offset" />
          </mxGeometry>
        </mxCell>
        <mxCell id="5cGKDr1xZVWZsfU2q4J_-9" value="Is a client=&amp;gt;server architecture" style="text;html=1;align=center;verticalAlign=middle;resizable=0;points=[];autosize=1;strokeColor=none;fillColor=none;" vertex="1" parent="1">
          <mxGeometry x="245" y="118" width="190" height="30" as="geometry" />
        </mxCell>
        <mxCell id="5cGKDr1xZVWZsfU2q4J_-10" value="client1" style="whiteSpace=wrap;html=1;aspect=fixed;" vertex="1" parent="1">
          <mxGeometry x="130" y="440" width="80" height="80" as="geometry" />
        </mxCell>
        <mxCell id="5cGKDr1xZVWZsfU2q4J_-15" style="edgeStyle=orthogonalEdgeStyle;rounded=0;orthogonalLoop=1;jettySize=auto;html=1;exitX=1;exitY=0.25;exitDx=0;exitDy=0;entryX=0;entryY=0.5;entryDx=0;entryDy=0;" edge="1" parent="1" source="5cGKDr1xZVWZsfU2q4J_-11" target="5cGKDr1xZVWZsfU2q4J_-14">
          <mxGeometry relative="1" as="geometry" />
        </mxCell>
        <mxCell id="5cGKDr1xZVWZsfU2q4J_-16" value="forks process" style="edgeLabel;html=1;align=center;verticalAlign=middle;resizable=0;points=[];" vertex="1" connectable="0" parent="5cGKDr1xZVWZsfU2q4J_-15">
          <mxGeometry x="-0.2481" y="-2" relative="1" as="geometry">
            <mxPoint as="offset" />
          </mxGeometry>
        </mxCell>
        <mxCell id="5cGKDr1xZVWZsfU2q4J_-20" value="forks process" style="edgeStyle=orthogonalEdgeStyle;rounded=0;orthogonalLoop=1;jettySize=auto;html=1;exitX=1;exitY=0.75;exitDx=0;exitDy=0;" edge="1" parent="1" source="5cGKDr1xZVWZsfU2q4J_-11" target="5cGKDr1xZVWZsfU2q4J_-19">
          <mxGeometry relative="1" as="geometry" />
        </mxCell>
        <mxCell id="5cGKDr1xZVWZsfU2q4J_-11" value="server(supervisor process, always running)" style="whiteSpace=wrap;html=1;aspect=fixed;" vertex="1" parent="1">
          <mxGeometry x="400" y="480" width="94" height="94" as="geometry" />
        </mxCell>
        <mxCell id="5cGKDr1xZVWZsfU2q4J_-12" value="connection request over tcp/ip" style="edgeStyle=orthogonalEdgeStyle;rounded=0;orthogonalLoop=1;jettySize=auto;html=1;exitX=1;exitY=0.5;exitDx=0;exitDy=0;entryX=-0.05;entryY=0.625;entryDx=0;entryDy=0;entryPerimeter=0;" edge="1" parent="1" source="5cGKDr1xZVWZsfU2q4J_-10" target="5cGKDr1xZVWZsfU2q4J_-11">
          <mxGeometry relative="1" as="geometry" />
        </mxCell>
        <mxCell id="5cGKDr1xZVWZsfU2q4J_-13" value="connection handling " style="text;html=1;align=center;verticalAlign=middle;resizable=0;points=[];autosize=1;strokeColor=none;fillColor=none;" vertex="1" parent="1">
          <mxGeometry x="270" y="370" width="130" height="30" as="geometry" />
        </mxCell>
        <mxCell id="5cGKDr1xZVWZsfU2q4J_-14" value="new process with client1 connection" style="rounded=0;whiteSpace=wrap;html=1;" vertex="1" parent="1">
          <mxGeometry x="600" y="393" width="120" height="60" as="geometry" />
        </mxCell>
        <mxCell id="5cGKDr1xZVWZsfU2q4J_-18" value="conncection request over tcp/ip" style="edgeStyle=orthogonalEdgeStyle;rounded=0;orthogonalLoop=1;jettySize=auto;html=1;exitX=1;exitY=0.5;exitDx=0;exitDy=0;entryX=0;entryY=1;entryDx=0;entryDy=0;" edge="1" parent="1" source="5cGKDr1xZVWZsfU2q4J_-17" target="5cGKDr1xZVWZsfU2q4J_-11">
          <mxGeometry relative="1" as="geometry" />
        </mxCell>
        <mxCell id="5cGKDr1xZVWZsfU2q4J_-17" value="client2" style="whiteSpace=wrap;html=1;aspect=fixed;" vertex="1" parent="1">
          <mxGeometry x="130" y="545" width="80" height="80" as="geometry" />
        </mxCell>
        <mxCell id="5cGKDr1xZVWZsfU2q4J_-27" value="new connection made " style="edgeStyle=orthogonalEdgeStyle;rounded=0;orthogonalLoop=1;jettySize=auto;html=1;exitX=0;exitY=1;exitDx=0;exitDy=0;entryX=1;entryY=1;entryDx=0;entryDy=0;" edge="1" parent="1" source="5cGKDr1xZVWZsfU2q4J_-19" target="5cGKDr1xZVWZsfU2q4J_-17">
          <mxGeometry relative="1" as="geometry" />
        </mxCell>
        <mxCell id="5cGKDr1xZVWZsfU2q4J_-19" value="client2 process/connection" style="rounded=0;whiteSpace=wrap;html=1;" vertex="1" parent="1">
          <mxGeometry x="590" y="485" width="120" height="60" as="geometry" />
        </mxCell>
        <mxCell id="5cGKDr1xZVWZsfU2q4J_-21" value="&lt;div&gt;db handling. the server process can handle multiple databases.&lt;br&gt;&lt;/div&gt;" style="text;html=1;align=center;verticalAlign=middle;resizable=0;points=[];autosize=1;strokeColor=none;fillColor=none;" vertex="1" parent="1">
          <mxGeometry x="110" y="698" width="360" height="30" as="geometry" />
        </mxCell>
        <mxCell id="5cGKDr1xZVWZsfU2q4J_-25" value="handles " style="edgeStyle=orthogonalEdgeStyle;rounded=0;orthogonalLoop=1;jettySize=auto;html=1;exitX=1;exitY=0.25;exitDx=0;exitDy=0;" edge="1" parent="1" source="5cGKDr1xZVWZsfU2q4J_-22" target="5cGKDr1xZVWZsfU2q4J_-23">
          <mxGeometry relative="1" as="geometry" />
        </mxCell>
        <mxCell id="5cGKDr1xZVWZsfU2q4J_-26" value="handles " style="edgeStyle=orthogonalEdgeStyle;rounded=0;orthogonalLoop=1;jettySize=auto;html=1;exitX=1;exitY=0.75;exitDx=0;exitDy=0;" edge="1" parent="1" source="5cGKDr1xZVWZsfU2q4J_-22" target="5cGKDr1xZVWZsfU2q4J_-24">
          <mxGeometry relative="1" as="geometry" />
        </mxCell>
        <mxCell id="5cGKDr1xZVWZsfU2q4J_-22" value="Server process" style="whiteSpace=wrap;html=1;aspect=fixed;" vertex="1" parent="1">
          <mxGeometry x="245" y="780" width="80" height="80" as="geometry" />
        </mxCell>
        <mxCell id="5cGKDr1xZVWZsfU2q4J_-23" value="db1" style="rounded=0;whiteSpace=wrap;html=1;" vertex="1" parent="1">
          <mxGeometry x="450" y="750" width="120" height="60" as="geometry" />
        </mxCell>
        <mxCell id="5cGKDr1xZVWZsfU2q4J_-24" value="db2" style="rounded=0;whiteSpace=wrap;html=1;" vertex="1" parent="1">
          <mxGeometry x="450" y="850" width="120" height="60" as="geometry" />
        </mxCell>
        <mxCell id="5cGKDr1xZVWZsfU2q4J_-28" value="new connection" style="edgeStyle=orthogonalEdgeStyle;rounded=0;orthogonalLoop=1;jettySize=auto;html=1;exitX=0.033;exitY=0.367;exitDx=0;exitDy=0;entryX=0.625;entryY=-0.062;entryDx=0;entryDy=0;entryPerimeter=0;exitPerimeter=0;" edge="1" parent="1" source="5cGKDr1xZVWZsfU2q4J_-14">
          <mxGeometry relative="1" as="geometry">
            <mxPoint x="560" y="410.96" as="sourcePoint" />
            <mxPoint x="140" y="452.99999999999994" as="targetPoint" />
            <Array as="points">
              <mxPoint x="560" y="415" />
              <mxPoint x="560" y="410" />
              <mxPoint x="365" y="410" />
              <mxPoint x="365" y="438" />
              <mxPoint x="140" y="438" />
            </Array>
          </mxGeometry>
        </mxCell>
        <mxCell id="5cGKDr1xZVWZsfU2q4J_-29" value="Text" style="edgeLabel;html=1;align=center;verticalAlign=middle;resizable=0;points=[];" vertex="1" connectable="0" parent="5cGKDr1xZVWZsfU2q4J_-28">
          <mxGeometry x="0.3545" relative="1" as="geometry">
            <mxPoint as="offset" />
          </mxGeometry>
        </mxCell>
        <mxCell id="5cGKDr1xZVWZsfU2q4J_-32" value="&lt;div&gt;after connection with new process, you may connect to a db&lt;/div&gt;&lt;div&gt;&lt;br&gt;&lt;/div&gt;" style="text;html=1;align=center;verticalAlign=middle;resizable=0;points=[];autosize=1;strokeColor=none;fillColor=none;" vertex="1" parent="1">
          <mxGeometry x="95" y="983" width="350" height="40" as="geometry" />
        </mxCell>
        <mxCell id="5cGKDr1xZVWZsfU2q4J_-35" value="connect to a db" style="edgeStyle=orthogonalEdgeStyle;rounded=0;orthogonalLoop=1;jettySize=auto;html=1;exitX=1;exitY=0.25;exitDx=0;exitDy=0;" edge="1" parent="1" source="5cGKDr1xZVWZsfU2q4J_-33" target="5cGKDr1xZVWZsfU2q4J_-34">
          <mxGeometry relative="1" as="geometry" />
        </mxCell>
        <mxCell id="5cGKDr1xZVWZsfU2q4J_-33" value="server connection " style="rounded=0;whiteSpace=wrap;html=1;" vertex="1" parent="1">
          <mxGeometry x="450" y="1030" width="120" height="60" as="geometry" />
        </mxCell>
        <mxCell id="5cGKDr1xZVWZsfU2q4J_-34" value="database " style="rounded=0;whiteSpace=wrap;html=1;" vertex="1" parent="1">
          <mxGeometry x="680" y="1030" width="120" height="60" as="geometry" />
        </mxCell>
        <mxCell id="5cGKDr1xZVWZsfU2q4J_-36" value="from this point, you can query against the db;" style="text;html=1;align=center;verticalAlign=middle;resizable=0;points=[];autosize=1;strokeColor=none;fillColor=none;" vertex="1" parent="1">
          <mxGeometry x="570" y="1110" width="270" height="30" as="geometry" />
        </mxCell>
        <mxCell id="5cGKDr1xZVWZsfU2q4J_-38" style="edgeStyle=orthogonalEdgeStyle;rounded=0;orthogonalLoop=1;jettySize=auto;html=1;exitX=1;exitY=0.25;exitDx=0;exitDy=0;" edge="1" parent="1" source="5cGKDr1xZVWZsfU2q4J_-37" target="5cGKDr1xZVWZsfU2q4J_-39">
          <mxGeometry relative="1" as="geometry">
            <mxPoint x="140" y="1060" as="targetPoint" />
          </mxGeometry>
        </mxCell>
        <mxCell id="5cGKDr1xZVWZsfU2q4J_-37" value="client1" style="rounded=0;whiteSpace=wrap;html=1;" vertex="1" parent="1">
          <mxGeometry y="1060" width="120" height="60" as="geometry" />
        </mxCell>
        <mxCell id="5cGKDr1xZVWZsfU2q4J_-40" value="&lt;div&gt;forked connection&lt;/div&gt;&lt;div&gt;&lt;br&gt;&lt;/div&gt;" style="edgeStyle=orthogonalEdgeStyle;rounded=0;orthogonalLoop=1;jettySize=auto;html=1;exitX=1;exitY=0.25;exitDx=0;exitDy=0;" edge="1" parent="1" source="5cGKDr1xZVWZsfU2q4J_-39" target="5cGKDr1xZVWZsfU2q4J_-33">
          <mxGeometry relative="1" as="geometry" />
        </mxCell>
        <mxCell id="5cGKDr1xZVWZsfU2q4J_-39" value="supervisor process/server " style="rounded=0;whiteSpace=wrap;html=1;" vertex="1" parent="1">
          <mxGeometry x="210" y="1010" width="80" height="100" as="geometry" />
        </mxCell>
        <mxCell id="5cGKDr1xZVWZsfU2q4J_-41" value="" style="rounded=0;whiteSpace=wrap;html=1;" vertex="1" parent="1">
          <mxGeometry x="70" y="1320" width="120" height="60" as="geometry" />
        </mxCell>
        <mxCell id="5cGKDr1xZVWZsfU2q4J_-42" value="Interfacing with prgorams (like java) " style="text;html=1;align=center;verticalAlign=middle;resizable=0;points=[];autosize=1;strokeColor=none;fillColor=none;" vertex="1" parent="1">
          <mxGeometry x="220" y="1178" width="220" height="30" as="geometry" />
        </mxCell>
      </root>
    </mxGraphModel>
  </diagram>
</mxfile>
